<svg width="31" height="30" viewBox="0 0 31 30" fill="none" xmlns="http://www.w3.org/2000/svg">
<g clip-path="url(#clip0_125_1455)">
<path d="M15.7003 2.5C8.80032 2.5 3.20032 8.1 3.20032 15C3.20032 21.9 8.80032 27.5 15.7003 27.5C22.6003 27.5 28.2003 21.9 28.2003 15C28.2003 8.1 22.6003 2.5 15.7003 2.5ZM15.7003 6.25C17.7753 6.25 19.4503 7.925 19.4503 10C19.4503 12.075 17.7753 13.75 15.7003 13.75C13.6253 13.75 11.9503 12.075 11.9503 10C11.9503 7.925 13.6253 6.25 15.7003 6.25ZM15.7003 24C12.5753 24 9.81282 22.4 8.20032 19.975C8.23782 17.4875 13.2003 16.125 15.7003 16.125C18.1878 16.125 23.1628 17.4875 23.2003 19.975C21.5878 22.4 18.8253 24 15.7003 24Z" fill="#FB9400"/>
</g>
<defs>
<clipPath id="clip0_125_1455">
<rect width="30" height="30" fill="white" transform="translate(0.700317)"/>
</clipPath>
</defs>
</svg>
