<svg width="48" height="49" viewBox="0 0 48 49" fill="none" xmlns="http://www.w3.org/2000/svg">
<rect y="0.5" width="48" height="48" rx="10" fill="white"/>
<path d="M11.4333 28.8083C11.1941 28.8083 11 28.6229 11 28.3945V13.7414C11 13.057 11.5833 12.5 12.3 12.5H35.7C36.4167 12.5 37 13.057 37 13.7414V17.8063C37 18.0347 36.8059 18.2201 36.5667 18.2201C36.3275 18.2201 36.1333 18.0347 36.1333 17.8063V13.7414C36.1333 13.5138 35.9383 13.3276 35.7 13.3276H12.3C12.0617 13.3276 11.8667 13.5138 11.8667 13.7414V28.3945C11.8667 28.6229 11.6725 28.8083 11.4333 28.8083Z" fill="#7F56D9" stroke="#FB9400" stroke-width="0.6"/>
<path d="M24 36.5H19.2333C18.9941 36.5 18.8 36.3146 18.8 36.0862C18.8 35.8578 18.9941 35.6724 19.2333 35.6724H20.1C20.8167 35.6724 21.4 35.1154 21.4 34.431V32.362C21.4 32.1336 21.5941 31.9482 21.8333 31.9482C22.0725 31.9482 22.2667 32.1336 22.2667 32.362V34.431C22.2667 34.8969 22.1046 35.3264 21.8325 35.6724H24C24.2392 35.6724 24.4333 35.8578 24.4333 36.0862C24.4333 36.3146 24.2392 36.5 24 36.5Z" fill="#7F56D9" stroke="#FB9400" stroke-width="0.6"/>
<path d="M25.0111 32.3621H12.3C11.5833 32.3621 11 31.8051 11 31.1207V28.6379C11 28.4095 11.1941 28.2241 11.4333 28.2241H25.0111C25.2503 28.2241 25.4444 28.4095 25.4444 28.6379C25.4444 28.8663 25.2503 29.0517 25.0111 29.0517H11.8667V31.1207C11.8667 31.3483 12.0617 31.5345 12.3 31.5345H25.0111C25.2503 31.5345 25.4444 31.7198 25.4444 31.9483C25.4444 32.1767 25.2503 32.3621 25.0111 32.3621Z" fill="#7F56D9" stroke="#FB9400" stroke-width="0.6"/>
<path d="M28.7667 18.2929H33.1C33.3392 18.2929 33.5333 18.1075 33.5333 17.8791C33.5333 17.6507 33.3392 17.4653 33.1 17.4653H28.7667C28.5275 17.4653 28.3333 17.6507 28.3333 17.8791C28.3333 18.1075 28.5275 18.2929 28.7667 18.2929Z" fill="#7F56D9" stroke="#FB9400" stroke-width="0.6"/>
<path d="M30.5 34.8447H31.3667C31.6059 34.8447 31.8 34.6593 31.8 34.4309C31.8 34.2025 31.6059 34.0171 31.3667 34.0171H30.5C30.2608 34.0171 30.0667 34.2025 30.0667 34.4309C30.0667 34.6593 30.2608 34.8447 30.5 34.8447Z" fill="#7F56D9" stroke="#FB9400" stroke-width="0.6"/>
<path fill-rule="evenodd" clip-rule="evenodd" d="M27.0333 36.5002H34.8333C36.0285 36.5002 37 35.5725 37 34.4312V17.8795C37 16.7383 36.0285 15.8105 34.8333 15.8105H27.0333C25.8382 15.8105 24.8667 16.7383 24.8667 17.8795V34.4312C24.8667 35.5725 25.8382 36.5002 27.0333 36.5002ZM25.7333 17.8795C25.7333 17.1951 26.3166 16.6381 27.0333 16.6381H34.8333C35.5501 16.6381 36.1333 17.1951 36.1333 17.8795V34.4312C36.1333 35.1157 35.5501 35.6726 34.8333 35.6726H27.0333C26.3166 35.6726 25.7333 35.1157 25.7333 34.4312V17.8795Z" fill="#7F56D9"/>
<path d="M34.8333 36.2002H27.0333V36.8002H34.8333V36.2002ZM36.7 34.4312C36.7 35.3939 35.876 36.2002 34.8333 36.2002V36.8002C36.181 36.8002 37.3 35.7511 37.3 34.4312H36.7ZM36.7 17.8795V34.4312H37.3V17.8795H36.7ZM34.8333 16.1105C35.876 16.1105 36.7 16.9169 36.7 17.8795H37.3C37.3 16.5597 36.181 15.5105 34.8333 15.5105V16.1105ZM27.0333 16.1105H34.8333V15.5105H27.0333V16.1105ZM25.1667 17.8795C25.1667 16.9169 25.9907 16.1105 27.0333 16.1105V15.5105C25.6857 15.5105 24.5667 16.5597 24.5667 17.8795H25.1667ZM25.1667 34.4312V17.8795H24.5667V34.4312H25.1667ZM27.0333 36.2002C25.9907 36.2002 25.1667 35.3939 25.1667 34.4312H24.5667C24.5667 35.7511 25.6857 36.8002 27.0333 36.8002V36.2002ZM27.0333 16.3381C26.1641 16.3381 25.4333 17.0165 25.4333 17.8795H26.0333C26.0333 17.3737 26.4691 16.9381 27.0333 16.9381V16.3381ZM34.8333 16.3381H27.0333V16.9381H34.8333V16.3381ZM36.4333 17.8795C36.4333 17.0165 35.7026 16.3381 34.8333 16.3381V16.9381C35.3976 16.9381 35.8333 17.3737 35.8333 17.8795H36.4333ZM36.4333 34.4312V17.8795H35.8333V34.4312H36.4333ZM34.8333 35.9726C35.7026 35.9726 36.4333 35.2942 36.4333 34.4312H35.8333C35.8333 34.9371 35.3976 35.3726 34.8333 35.3726V35.9726ZM27.0333 35.9726H34.8333V35.3726H27.0333V35.9726ZM25.4333 34.4312C25.4333 35.2942 26.1641 35.9726 27.0333 35.9726V35.3726C26.4691 35.3726 26.0333 34.9371 26.0333 34.4312H25.4333ZM25.4333 17.8795V34.4312H26.0333V17.8795H25.4333Z" fill="#FB9400"/>
</svg>
