<svg width="48" height="49" viewBox="0 0 48 49" fill="none" xmlns="http://www.w3.org/2000/svg">
<rect y="0.5" width="47.7143" height="48" rx="10" fill="#FCE7F6"/>
<path d="M11.625 12.5C11.2798 12.5 11 12.7612 11 13.0834V35.4683C11 35.7543 11.1187 36.0274 11.3278 36.2225C11.5188 36.4008 11.7704 36.5 12.0317 36.5H36.0892C36.4344 36.5 36.7143 36.2388 36.7143 35.9166C36.7143 35.5944 36.4344 35.3333 36.0892 35.3333H14.2501C13.1455 35.3333 12.2501 34.4378 12.2501 33.3333V13.0834C12.2501 12.7612 11.9702 12.5 11.625 12.5Z" fill="#C11574"/>
<path fill-rule="evenodd" clip-rule="evenodd" d="M16.6254 27.6477C15.4943 27.6356 14.5045 28.3548 14.2397 29.3813C13.975 30.4077 14.5057 31.4686 15.5187 31.9382C16.5318 32.4079 17.7582 32.1615 18.4745 31.3444C19.1908 30.5273 19.2068 29.3566 18.513 28.5227L21.4382 24.5208C21.692 24.6012 21.9577 24.6445 22.2257 24.6491C22.9107 24.6551 23.5657 24.3876 24.0259 23.9141L26.626 25.6409C26.5861 25.8095 26.5651 25.9815 26.5635 26.1542C26.5635 27.3914 27.6381 28.3944 28.9637 28.3944C30.2893 28.3944 31.3639 27.3914 31.3639 26.1542C31.362 25.6474 31.172 25.1567 30.8263 24.7658L33.614 20.7872C34.749 21.1212 35.9737 20.6197 36.4788 19.614C36.984 18.6083 36.6137 17.4089 35.6126 16.8082C34.6116 16.2076 33.2888 16.3911 32.5182 17.2376C31.7476 18.084 31.7672 19.3321 32.564 20.1572L29.7888 24.0774C29.5131 23.9798 29.2211 23.9284 28.9262 23.9257C28.2709 23.9254 27.6436 24.1739 27.1886 24.6141L24.5759 22.9107C24.5889 22.7592 24.5889 22.6071 24.5759 22.4556C24.6268 21.4434 23.9432 20.5253 22.9089 20.2168C21.8746 19.9084 20.7473 20.2864 20.1599 21.1387C19.5724 21.9909 19.6711 23.1051 20.4006 23.8557L17.5129 27.811C17.2313 27.7031 16.9298 27.6477 16.6254 27.6477ZM34.3141 17.602C34.9493 17.602 35.4642 18.0826 35.4642 18.6754C35.4642 19.2682 34.9493 19.7488 34.3141 19.7488C33.6789 19.7488 33.164 19.2682 33.164 18.6754C33.164 18.0826 33.6789 17.602 34.3141 17.602ZM30.0763 26.1543C30.0763 25.5614 29.5614 25.0808 28.9262 25.0808C28.291 25.0808 27.7761 25.5614 27.7761 26.1543C27.7761 26.7471 28.291 27.2277 28.9262 27.2277C29.5614 27.2277 30.0763 26.7471 30.0763 26.1543ZM22.2257 21.3356C22.8609 21.3356 23.3758 21.8161 23.3758 22.409C23.3758 23.0018 22.8609 23.4824 22.2257 23.4824C21.5905 23.4824 21.0756 23.0018 21.0756 22.409C21.0756 21.8161 21.5905 21.3356 22.2257 21.3356ZM15.5606 30.293C15.7371 30.697 16.1579 30.9611 16.6254 30.9612C17.2509 30.9613 17.7618 30.4948 17.7754 29.9111C17.7856 29.475 17.5119 29.0765 17.0831 28.903C16.6542 28.7294 16.1555 28.8154 15.8214 29.1205C15.4873 29.4256 15.3842 29.889 15.5606 30.293Z" fill="#C11574"/>
</svg>
